<svg width="98" height="52" viewBox="0 0 98 52" fill="none" xmlns="http://www.w3.org/2000/svg">
<path fill-rule="evenodd" clip-rule="evenodd" d="M36.5703 0.591797C36.018 0.591797 35.5703 1.03951 35.5703 1.5918V5.86675C35.5703 6.41903 36.018 6.86675 36.5703 6.86675H72.8973C83.0242 6.86675 90.9777 14.6634 90.9777 24.7562V24.7562C90.9777 25.0418 91.2092 25.2733 91.4948 25.2733H96.757C97.0425 25.2733 97.274 25.0418 97.274 24.7562V24.7562C97.274 11.267 86.432 0.591797 72.8973 0.591797H36.5703Z" fill="#6B7B84" stroke="#80949F" stroke-width="0.5"/>
<path fill-rule="evenodd" clip-rule="evenodd" d="M7.10634 25.7117V25.7117C7.10634 25.4697 6.91011 25.2734 6.66805 25.2734H1.16388C0.921815 25.2734 0.725586 25.4697 0.725586 25.7117V25.7117C0.725586 39.3611 10.9488 50.6306 24.1682 51.3681L66.5099 51.4059C67.0625 51.4064 67.5108 50.9585 67.5108 50.4059V45.8263C67.5108 45.274 67.0631 44.8263 66.5108 44.8263H25.626C15.3898 44.7979 7.10634 36.2826 7.10634 25.7117Z" fill="#6B7B84" stroke="#80949F" stroke-width="0.5"/>
<path fill-rule="evenodd" clip-rule="evenodd" d="M28.1415 39.7909C30.8803 39.7909 33.1616 39.2588 35.4149 38.164L35.5704 38.0185V30.184L34.7273 31.2634C33.1049 33.0363 30.9259 34.0122 28.4608 34.0122C23.8692 34.0122 19.2575 31.0444 19.2575 25.3723C19.2575 21.086 22.4381 16.5305 28.2993 16.5305C29.4688 16.5305 32.313 16.807 34.7232 19.3665L35.5704 20.4102V12.6113L35.4218 12.4638C33.1258 11.3133 30.7843 10.7539 28.1137 10.7539C23.5467 10.7539 19.9821 11.9562 17.1438 14.4275C15.3435 15.9762 12.3408 19.447 12.3408 25.2908C12.3408 29.6116 13.8793 32.986 17.1669 35.9129C20.2252 38.5947 23.6163 39.7909 28.1415 39.7909" fill="#6B7B84"/>
<path d="M28.1415 39.7909C30.8803 39.7909 33.1616 39.2588 35.4149 38.164L35.5704 38.0185V30.184L34.7273 31.2634C33.1049 33.0363 30.9259 34.0122 28.4608 34.0122C23.8692 34.0122 19.2575 31.0444 19.2575 25.3723C19.2575 21.086 22.4381 16.5305 28.2993 16.5305C29.4688 16.5305 32.313 16.807 34.7232 19.3665L35.5704 20.4102V12.6113L35.4218 12.4638C33.1258 11.3133 30.7843 10.7539 28.1137 10.7539C23.5467 10.7539 19.9821 11.9562 17.1438 14.4275C15.3435 15.9762 12.3408 19.447 12.3408 25.2908C12.3408 29.6116 13.8793 32.986 17.1669 35.9129C20.2252 38.5947 23.6163 39.7909 28.1415 39.7909" stroke="#80949F" stroke-width="0.5"/>
<path fill-rule="evenodd" clip-rule="evenodd" d="M47.9103 17.2872H49.2746C50.5261 17.2872 51.9524 17.3555 53.032 18.0914C53.5591 18.4679 54.4436 19.3397 54.4436 20.923C54.4436 22.093 53.9266 23.1421 53.0725 23.7968C51.9775 24.5916 50.6759 24.546 49.6301 24.546H47.9103V17.2872ZM50.976 29.8164C54.2074 29.8164 56.7368 28.8843 58.4933 27.1284C60.654 24.9721 60.977 22.0059 60.977 20.4421C60.977 18.7688 60.5803 15.5051 57.9202 13.142C55.7398 11.2314 53.4132 10.7539 50.1314 10.7539H41.377V39.7909H48.0355V29.8164H50.976V29.8164Z" fill="#6B7B84"/>
<path d="M47.9103 17.2872V17.0372H47.6603V17.2872H47.9103ZM53.032 18.0914L53.1773 17.8879L53.1728 17.8848L53.032 18.0914ZM53.0725 23.7968L53.2194 23.9992L53.2246 23.9952L53.0725 23.7968ZM47.9103 24.546H47.6603V24.796H47.9103V24.546ZM58.4933 27.1284L58.3167 26.9514L58.3166 26.9516L58.4933 27.1284ZM57.9202 13.142L58.0863 12.9551L58.085 12.954L57.9202 13.142ZM41.377 10.7539V10.5039H41.127V10.7539H41.377ZM41.377 39.7909H41.127V40.0409H41.377V39.7909ZM48.0355 39.7909V40.0409H48.2855V39.7909H48.0355ZM48.0355 29.8164V29.5664H47.7855V29.8164H48.0355ZM47.9103 17.5372H49.2746V17.0372H47.9103V17.5372ZM49.2746 17.5372C50.5318 17.5372 51.883 17.6107 52.8912 18.298L53.1728 17.8848C52.0219 17.1003 50.5203 17.0372 49.2746 17.0372V17.5372ZM52.8867 18.2948C53.3743 18.6431 54.1936 19.4479 54.1936 20.923H54.6936C54.6936 19.2314 53.744 18.2927 53.1773 17.8879L52.8867 18.2948ZM54.1936 20.923C54.1936 22.0189 53.7099 22.9932 52.9204 23.5984L53.2246 23.9952C54.1432 23.291 54.6936 22.1671 54.6936 20.923H54.1936ZM52.9257 23.5945C51.9083 24.3329 50.6963 24.296 49.6301 24.296V24.796C50.6556 24.796 52.0467 24.8503 53.2194 23.9991L52.9257 23.5945ZM49.6301 24.296H47.9103V24.796H49.6301V24.296ZM48.1603 24.546V17.2872H47.6603V24.546H48.1603ZM50.976 30.0664C54.2559 30.0664 56.8554 29.1192 58.67 27.3052L58.3166 26.9516C56.6182 28.6494 54.1589 29.5664 50.976 29.5664V30.0664ZM58.6699 27.3053C60.902 25.0778 61.227 22.0273 61.227 20.4421H60.727C60.727 21.9845 60.4061 24.8663 58.3167 26.9514L58.6699 27.3053ZM61.227 20.4421C61.227 18.7407 60.8253 15.3884 58.0863 12.9551L57.7542 13.3289C60.3353 15.6219 60.727 18.7969 60.727 20.4421H61.227ZM58.085 12.954C55.839 10.9859 53.4408 10.5039 50.1314 10.5039V11.0039C53.3857 11.0039 55.6405 11.4768 57.7555 13.3301L58.085 12.954ZM50.1314 10.5039H41.377V11.0039H50.1314V10.5039ZM41.127 10.7539V39.7909H41.627V10.7539H41.127ZM41.377 40.0409H48.0355V39.5409H41.377V40.0409ZM48.2855 39.7909V29.8164H47.7855V39.7909H48.2855ZM48.0355 30.0664H50.976V29.5664H48.0355V30.0664Z" fill="#80949F"/>
<path fill-rule="evenodd" clip-rule="evenodd" d="M80.9525 24.4672C79.5049 23.1846 77.4841 22.441 75.1906 21.6698C73.5564 21.1012 72.656 20.7879 72.0557 20.2406C71.582 19.8384 71.3707 19.4018 71.3707 18.8247C71.3707 17.5607 72.2296 16.2099 74.6409 16.2099C76.2796 16.2099 77.6517 16.9105 78.7192 18.2916L79.143 18.8399L82.6592 14.3641L82.3387 14.043C80.1882 11.891 77.3543 10.7539 74.1435 10.7539C67.6652 10.7539 64.7653 14.9684 64.7653 19.1454C64.7653 21.3868 65.5646 23.1945 67.1362 24.516C68.5432 25.7219 70.259 26.3977 71.9049 26.9492L72.091 27.0109C73.5525 27.494 75.0641 27.994 75.9669 28.8019C76.595 29.379 76.8749 30.0062 76.8749 30.8353C76.8749 32.7353 75.3786 34.0122 73.1515 34.0122C71.3911 34.0122 69.0731 33.1493 67.8466 30.7282L67.5259 30.0938L63.1553 34.1396L63.413 34.5042C64.8074 36.4786 67.954 39.7909 73.3589 39.7909C79.3186 39.7909 83.4812 35.9594 83.4812 30.4736C83.4812 27.336 82.1046 25.4737 80.9525 24.4672" fill="#6B7B84"/>
<path d="M80.9525 24.4672C79.5049 23.1846 77.4841 22.441 75.1906 21.6698C73.5564 21.1012 72.656 20.7879 72.0557 20.2406C71.582 19.8384 71.3707 19.4018 71.3707 18.8247C71.3707 17.5607 72.2296 16.2099 74.6409 16.2099C76.2796 16.2099 77.6517 16.9105 78.7192 18.2916L79.143 18.8399L82.6592 14.3641L82.3387 14.043C80.1882 11.891 77.3543 10.7539 74.1435 10.7539C67.6652 10.7539 64.7653 14.9684 64.7653 19.1454C64.7653 21.3868 65.5646 23.1945 67.1362 24.516C68.5432 25.7219 70.259 26.3977 71.9049 26.9492L72.091 27.0109C73.5525 27.494 75.0641 27.994 75.9669 28.8019C76.595 29.379 76.8749 30.0062 76.8749 30.8353C76.8749 32.7353 75.3786 34.0122 73.1515 34.0122C71.3911 34.0122 69.0731 33.1493 67.8466 30.7282L67.5259 30.0938L63.1553 34.1396L63.413 34.5042C64.8074 36.4786 67.954 39.7909 73.3589 39.7909C79.3186 39.7909 83.4812 35.9594 83.4812 30.4736C83.4812 27.336 82.1046 25.4737 80.9525 24.4672" stroke="#80949F" stroke-width="0.5"/>
</svg>
